<svg width="10" height="10" viewBox="0 0 10 10" fill="none" xmlns="http://www.w3.org/2000/svg">
<rect width="10" height="10" rx="2" fill="#8CCD43"/>
<path d="M3.20008 3.18337C3.11724 3.07292 2.96054 3.05053 2.85008 3.13337C2.73962 3.21622 2.71724 3.37292 2.80008 3.48337L3.73341 4.72782C4.36675 5.57226 5.63341 5.57226 6.26675 4.72782L7.20008 3.48337C7.28292 3.37292 7.26054 3.21622 7.15008 3.13337C7.03962 3.05053 6.88292 3.07292 6.80008 3.18337L5.86675 4.42782C5.43341 5.0056 4.56675 5.0056 4.13341 4.42782L3.20008 3.18337Z" fill="#363538"/>
<path fill-rule="evenodd" clip-rule="evenodd" d="M7.00008 2.33337H3.00008C2.2637 2.33337 1.66675 2.93033 1.66675 3.66671V6.33337C1.66675 7.06975 2.2637 7.66671 3.00008 7.66671H7.00008C7.73646 7.66671 8.33341 7.06975 8.33341 6.33337V3.66671C8.33341 2.93033 7.73646 2.33337 7.00008 2.33337ZM3.00008 2.83337H7.00008C7.46032 2.83337 7.83341 3.20647 7.83341 3.66671V6.33337C7.83341 6.79361 7.46032 7.16671 7.00008 7.16671H3.00008C2.53984 7.16671 2.16675 6.79361 2.16675 6.33337V3.66671C2.16675 3.20647 2.53984 2.83337 3.00008 2.83337Z" fill="#363538"/>
</svg>
