<svg width="10" height="10" viewBox="0 0 10 10" fill="none" xmlns="http://www.w3.org/2000/svg">
<g clip-path="url(#clip0_15_1351)">
<path d="M5 0C2.2386 0 0 2.2386 0 5C0 7.3448 1.6144 9.3124 3.7922 9.8528V6.528H2.7612V5H3.7922V4.3416C3.7922 2.6398 4.5624 1.851 6.2332 1.851C6.55 1.851 7.0966 1.9132 7.3202 1.9752V3.3602C7.2022 3.3478 6.9972 3.3416 6.7426 3.3416C5.9228 3.3416 5.606 3.6522 5.606 4.4596V5H7.2392L6.9586 6.528H5.606V9.9634C8.0818 9.6644 10.0002 7.5564 10.0002 5C10 2.2386 7.7614 0 5 0Z" fill="#45254E"/>
</g>
<defs>
<clipPath id="clip0_15_1351">
<rect width="10" height="10" fill="white"/>
</clipPath>
</defs>
</svg>
