<svg width="10" height="10" viewBox="0 0 10 10" fill="none" xmlns="http://www.w3.org/2000/svg">
<rect width="10" height="10" rx="2" fill="#8CCD43"/>
<path fill-rule="evenodd" clip-rule="evenodd" d="M2.01929 3.06696L2.30577 2.494C2.50927 2.087 3.0517 1.99898 3.37346 2.32074L4.13404 3.08132C4.33694 3.28422 4.38725 3.5942 4.25892 3.85086L4.17134 4.02602C4.03044 4.30782 4.0281 4.64128 4.19228 4.91018C4.32081 5.1207 4.48536 5.36247 4.64924 5.52635C4.79049 5.66759 4.98958 5.80933 5.17666 5.92808C5.49019 6.12709 5.89015 6.08958 6.18926 5.8695C6.45599 5.67324 6.82694 5.70548 7.05582 5.9448L7.70897 6.62775C8.01916 6.9521 7.92673 7.4841 7.52531 7.68481L6.9332 7.98086C6.47303 8.21095 5.95165 8.30869 5.46526 8.14103C4.88102 7.93963 4.04373 7.53697 3.25345 6.7467C2.46318 5.95643 2.06052 5.11913 1.85913 4.53489C1.69147 4.0485 1.78921 3.52712 2.01929 3.06696ZM2.4665 3.29056L2.75298 2.71761C2.80386 2.61586 2.93947 2.59385 3.0199 2.67429L3.78048 3.43487C3.83121 3.4856 3.84379 3.56309 3.8117 3.62726L3.72413 3.80241C3.51558 4.21951 3.5011 4.73763 3.76553 5.17073C3.89843 5.38841 4.08807 5.67228 4.29569 5.8799C4.47625 6.06046 4.71231 6.22556 4.90871 6.35022C5.41864 6.6739 6.04273 6.59807 6.48558 6.27223C6.54988 6.22492 6.6393 6.23269 6.69447 6.29038L7.34762 6.97333C7.42516 7.05442 7.40206 7.18742 7.3017 7.2376L6.70959 7.53365C6.32578 7.72555 5.9477 7.77845 5.62821 7.66832C5.09787 7.48551 4.33169 7.11783 3.60701 6.39315C2.88233 5.66847 2.51464 4.90229 2.33183 4.37195C2.2217 4.05246 2.2746 3.67437 2.4665 3.29056Z" fill="#363538"/>
</svg>
