<svg width="10" height="10" viewBox="0 0 10 10" fill="none" xmlns="http://www.w3.org/2000/svg">
<rect width="10" height="10" rx="2" fill="#8CCD43"/>
<g clip-path="url(#clip0_15_1343)">
<path fill-rule="evenodd" clip-rule="evenodd" d="M8.33341 4.99996C8.33341 6.84091 6.84103 8.33329 5.00008 8.33329C3.15913 8.33329 1.66675 6.84091 1.66675 4.99996C1.66675 3.15901 3.15913 1.66663 5.00008 1.66663C6.84103 1.66663 8.33341 3.15901 8.33341 4.99996ZM2.16675 4.99996C2.16675 4.74772 2.19971 4.50318 2.26156 4.27041L2.38869 4.24381L2.40169 4.24114C2.41324 4.23878 2.43049 4.23527 2.45291 4.2308C2.49775 4.22185 2.56327 4.20901 2.64534 4.19357C2.76203 4.17162 2.91198 4.14446 3.08341 4.11581V5.88411C2.91198 5.85545 2.76203 5.8283 2.64534 5.80635C2.56327 5.79091 2.49775 5.77807 2.45291 5.76912C2.43049 5.76464 2.41324 5.76114 2.40169 5.75878L2.38869 5.7561L2.26156 5.72951C2.19971 5.49674 2.16675 5.2522 2.16675 4.99996ZM2.55291 3.70218C2.69067 3.67627 2.8736 3.64329 3.08341 3.60903V2.91327C2.83497 3.14159 2.62742 3.41371 2.47299 3.71738C2.49758 3.71265 2.52428 3.70757 2.55291 3.70218ZM4.75008 6.07772C4.37809 6.06207 3.96315 6.01532 3.58341 5.9615V4.03842C3.96315 3.9846 4.37809 3.93785 4.75008 3.9222V6.07772ZM3.58341 3.53355C3.95953 3.48169 4.37252 3.43666 4.75008 3.4218V2.1775C4.32783 2.21442 3.93213 2.34395 3.58341 2.54568V3.53355ZM6.41675 5.9615C6.03701 6.01532 5.62207 6.06207 5.25008 6.07772V3.9222C5.62207 3.93785 6.03701 3.9846 6.41675 4.03842V5.9615ZM5.25008 3.4218C5.62764 3.43666 6.04063 3.48169 6.41675 3.53355V2.54568C6.06803 2.34395 5.67233 2.21442 5.25008 2.1775V3.4218ZM7.35482 5.80635C7.23814 5.8283 7.08819 5.85545 6.91675 5.88411V4.11581C7.08819 4.14446 7.23814 4.17162 7.35482 4.19357C7.43689 4.20901 7.50241 4.22185 7.54726 4.2308C7.56967 4.23527 7.58692 4.23878 7.59848 4.24114L7.61148 4.24381L7.61465 4.24447L7.7386 4.27041C7.80045 4.50318 7.83341 4.74772 7.83341 4.99996C7.83341 5.2522 7.80045 5.49674 7.7386 5.72951L7.61148 5.7561L7.59848 5.75878C7.58692 5.76114 7.56967 5.76464 7.54726 5.76912C7.50241 5.77807 7.43689 5.79091 7.35482 5.80635ZM7.44725 3.70218C7.47589 3.70757 7.50258 3.71265 7.52718 3.71738C7.37275 3.41371 7.16519 3.14159 6.91675 2.91327V3.60903C7.12656 3.64329 7.30949 3.67627 7.44725 3.70218ZM6.91675 7.08664C7.16519 6.85832 7.37275 6.58621 7.52718 6.28254C7.50258 6.28726 7.47589 6.29235 7.44725 6.29773C7.30949 6.32365 7.12656 6.35663 6.91675 6.39089V7.08664ZM5.25008 6.57812C5.62764 6.56326 6.04063 6.51823 6.41675 6.46637V7.33329C6.41675 7.37155 6.42534 7.40781 6.44071 7.44023C6.0862 7.64996 5.68203 7.78465 5.25008 7.82241V6.57812ZM3.58341 6.46637C3.95953 6.51823 4.37252 6.56326 4.75008 6.57812V7.82241C4.31813 7.78465 3.91396 7.64996 3.55946 7.44023C3.57482 7.40781 3.58341 7.37155 3.58341 7.33329V6.46637ZM2.55291 6.29773C2.69067 6.32365 2.8736 6.35663 3.08341 6.39089V7.08664C2.83497 6.85832 2.62742 6.58621 2.47299 6.28254C2.49758 6.28726 2.52428 6.29235 2.55291 6.29773Z" fill="#363538"/>
</g>
<defs>
<clipPath id="clip0_15_1343">
<rect width="8" height="8" fill="white" transform="translate(1 1)"/>
</clipPath>
</defs>
</svg>
