<svg width="10" height="10" viewBox="0 0 10 10" fill="none" xmlns="http://www.w3.org/2000/svg">
<g clip-path="url(#clip0_15_1350)">
<path d="M5 0.900391C6.33594 0.900391 6.49414 0.90625 7.01953 0.929687C7.50781 0.951172 7.77149 1.0332 7.94727 1.10156C8.17969 1.19141 8.34766 1.30078 8.52149 1.47461C8.69727 1.65039 8.80469 1.81641 8.89453 2.04883C8.96289 2.22461 9.04492 2.49023 9.06641 2.97656C9.08984 3.50391 9.0957 3.66211 9.0957 4.99609C9.0957 6.33203 9.08984 6.49024 9.06641 7.01563C9.04492 7.50391 8.96289 7.76758 8.89453 7.94336C8.80469 8.17578 8.69531 8.34375 8.52149 8.51758C8.3457 8.69336 8.17969 8.80078 7.94727 8.89063C7.77149 8.95899 7.50586 9.04102 7.01953 9.0625C6.49219 9.08594 6.33399 9.0918 5 9.0918C3.66406 9.0918 3.50586 9.08594 2.98047 9.0625C2.49219 9.04102 2.22852 8.95899 2.05273 8.89063C1.82031 8.80078 1.65234 8.69141 1.47852 8.51758C1.30273 8.3418 1.19531 8.17578 1.10547 7.94336C1.03711 7.76758 0.955078 7.50195 0.933594 7.01563C0.910156 6.48828 0.904297 6.33008 0.904297 4.99609C0.904297 3.66016 0.910156 3.50195 0.933594 2.97656C0.955078 2.48828 1.03711 2.22461 1.10547 2.04883C1.19531 1.81641 1.30469 1.64844 1.47852 1.47461C1.6543 1.29883 1.82031 1.19141 2.05273 1.10156C2.22852 1.0332 2.49414 0.951172 2.98047 0.929687C3.50586 0.90625 3.66406 0.900391 5 0.900391ZM5 0C3.64258 0 3.47266 0.00585937 2.93945 0.0292969C2.4082 0.0527344 2.04297 0.138672 1.72656 0.261719C1.39648 0.390625 1.11719 0.560547 0.839844 0.839844C0.560547 1.11719 0.390625 1.39648 0.261719 1.72461C0.138672 2.04297 0.0527344 2.40625 0.0292969 2.9375C0.00585938 3.47266 0 3.64258 0 5C0 6.35742 0.00585938 6.52734 0.0292969 7.06055C0.0527344 7.5918 0.138672 7.95703 0.261719 8.27344C0.390625 8.60352 0.560547 8.88281 0.839844 9.16016C1.11719 9.4375 1.39648 9.60938 1.72461 9.73633C2.04297 9.85938 2.40625 9.94531 2.9375 9.96875C3.4707 9.99219 3.64063 9.99805 4.99805 9.99805C6.35547 9.99805 6.52539 9.99219 7.05859 9.96875C7.58984 9.94531 7.95508 9.85938 8.27149 9.73633C8.59961 9.60938 8.87891 9.4375 9.15625 9.16016C9.43359 8.88281 9.60547 8.60352 9.73242 8.27539C9.85547 7.95703 9.94141 7.59375 9.96484 7.0625C9.98828 6.5293 9.99414 6.35938 9.99414 5.00195C9.99414 3.64453 9.98828 3.47461 9.96484 2.94141C9.94141 2.41016 9.85547 2.04492 9.73242 1.72852C9.60938 1.39648 9.43945 1.11719 9.16016 0.839844C8.88281 0.5625 8.60352 0.390625 8.27539 0.263672C7.95703 0.140625 7.59375 0.0546875 7.0625 0.03125C6.52734 0.00585938 6.35742 0 5 0Z" fill="#45254E"/>
<path d="M5 2.43164C3.58203 2.43164 2.43164 3.58203 2.43164 5C2.43164 6.41797 3.58203 7.56836 5 7.56836C6.41797 7.56836 7.56836 6.41797 7.56836 5C7.56836 3.58203 6.41797 2.43164 5 2.43164ZM5 6.66602C4.08008 6.66602 3.33398 5.91992 3.33398 5C3.33398 4.08008 4.08008 3.33398 5 3.33398C5.91992 3.33398 6.66602 4.08008 6.66602 5C6.66602 5.91992 5.91992 6.66602 5 6.66602Z" fill="#45254E"/>
<path d="M8.26953 2.33008C8.26953 2.66211 8 2.92969 7.66992 2.92969C7.33789 2.92969 7.07031 2.66016 7.07031 2.33008C7.07031 1.99805 7.33984 1.73047 7.66992 1.73047C8 1.73047 8.26953 2 8.26953 2.33008Z" fill="#45254E"/>
</g>
<defs>
<clipPath id="clip0_15_1350">
<rect width="10" height="10" fill="white"/>
</clipPath>
</defs>
</svg>
