<svg width="199" height="135" viewBox="0 0 199 135" fill="none" xmlns="http://www.w3.org/2000/svg">
<path d="M0.432538 58.5073L7.16979 46.8124H60.6495L67.4023 58.5073H0.432538Z" stroke="#45254E" stroke-opacity="0.31" stroke-width="0.5"/>
<path d="M14.4276 79.5711L22.4014 67.8762H72.8099L79.5669 79.5711H14.4276Z" stroke="#45254E" stroke-opacity="0.31" stroke-width="0.5"/>
<path d="M45.1411 41.8778L27.5478 11.0893L33.9057 0.49275L57.8088 41.8778H45.1411Z" stroke="#45254E" stroke-opacity="0.31" stroke-width="0.5"/>
<path d="M13.269 45.9218H53.5954L58.8765 55.0679H8L13.269 45.9218Z" fill="#EDEBEB" fill-opacity="0.75"/>
<path d="M24.7018 61.7196H62.7156L67.9999 70.8658H18.4658L24.7018 61.7196Z" fill="#EDEBEB" fill-opacity="0.75"/>
<path d="M28.4436 19.3147L33.4324 11L51.6815 42.5958H41.7471L28.4436 19.3147Z" fill="#EDEBEB" fill-opacity="0.75"/>
<path d="M95.0315 87.4869H171.808L181.863 104.9H85L95.0315 87.4869Z" fill="#EDEBEB" fill-opacity="0.75"/>
<path d="M116.798 117.564H189.172L199.233 134.978H104.926L116.798 117.564Z" fill="#EDEBEB" fill-opacity="0.75"/>
<path d="M123.922 36.8302L133.42 21L168.164 81.1549H149.25L123.922 36.8302Z" fill="#EDEBEB" fill-opacity="0.75"/>
</svg>
