<svg width="10" height="10" viewBox="0 0 10 10" fill="none" xmlns="http://www.w3.org/2000/svg">
<path d="M9.90039 3C9.90039 3 9.80273 2.31055 9.50195 2.00781C9.12109 1.60938 8.69531 1.60742 8.5 1.58398C7.10156 1.48242 5.00195 1.48242 5.00195 1.48242H4.99805C4.99805 1.48242 2.89844 1.48242 1.5 1.58398C1.30469 1.60742 0.878906 1.60938 0.498047 2.00781C0.197266 2.31055 0.101562 3 0.101562 3C0.101562 3 0 3.81055 0 4.61914V5.37695C0 6.18555 0.0996094 6.99609 0.0996094 6.99609C0.0996094 6.99609 0.197266 7.68555 0.496094 7.98828C0.876953 8.38672 1.37695 8.37305 1.59961 8.41602C2.40039 8.49219 5 8.51563 5 8.51563C5 8.51563 7.10156 8.51172 8.5 8.41211C8.69531 8.38867 9.12109 8.38672 9.50195 7.98828C9.80273 7.68555 9.90039 6.99609 9.90039 6.99609C9.90039 6.99609 10 6.1875 10 5.37695V4.61914C10 3.81055 9.90039 3 9.90039 3ZM3.9668 6.29688V3.48633L6.66797 4.89648L3.9668 6.29688Z" fill="#45254E"/>
</svg>
